# xmcd
#
# Track frame offsets:
#	150
#	20395
#	38151
#	56598
#	74404
#	92466
#	107481
#	127764
#	146784
#	163793
#	180589
#	195327
#
# Disc length: 2817 seconds
#
# Revision: 1
# Processed by: cddbd v1.5.2PL0 Copyright (c) Steve Scherf et al.
# Submitted via: audiograbber 1.83.01
#
DISCID=980aff0c
DTITLE=Tim McGraw - Greatest Hits 3
DYEAR=2008
DGENRE=Country
TTITLE0=Back When
TTITLE1=Last Dollar (Fly Away)
TTITLE2=If You're Reading This
TTITLE3=Do You Want Fries With That
TTITLE4=Unbroken
TTITLE5=Can't Be Really Gone
TTITLE6=Angry All The Time
TTITLE7=Suspicions
TTITLE8=Find Out Who Your Friends Are (featuring Tracy Lawrence)
TTITLE9=Let It Go
TTITLE10=Real Good Man (Live Version)
TTITLE11=Nine Lives (featuring Def Leppard)
EXTD=
EXTT0=
EXTT1=
EXTT2=
EXTT3=
EXTT4=
EXTT5=
EXTT6=
EXTT7=
EXTT8=
EXTT9=
EXTT10=
EXTT11=
PLAYORDER=
